<?xml version="1.0" encoding="UTF-8"?>
<svg id="Layer_1" data-name="Layer 1" xmlns="http://www.w3.org/2000/svg" viewBox="0 0 1161.18 1080">
  <defs>
    <style>
      .cls-1 {
        fill: #fff;
      }

      .cls-2 {
        fill: #191919;
      }
    </style>
  </defs>
  <path class="cls-1" d="M1128.71,532.87c24.21,36.95-3.81,107-64.84,180.69-.17.17-.3.38-.47.56v-209.22c.17,0,.3.04.47.04,29.55,1.84,52.78,9.45,64.84,27.93Z"/>
  <path class="cls-1" d="M1063.4,714.12v169.36h-200.07c7.14-4.28,14.2-8.68,21.17-13.17,6.67-4.32,13.26-8.68,19.72-13.17h132.88v-113.33c9.32-9.92,18.09-19.84,26.3-29.68Z"/>
  <path class="cls-1" d="M1063.4,504.9v209.22c-8.21,9.84-16.98,19.76-26.3,29.68v-239.54c9.2-.13,18.01.04,26.3.64Z"/>
  <path class="cls-1" d="M1063.4,230.76v274.14c-8.3-.6-17.11-.77-26.3-.64v-247.15h-232.27c2.39-4.41,4.79-8.81,7.14-13.17,2.39-4.41,4.79-8.81,7.14-13.17h244.29Z"/>
  <path class="cls-1" d="M1037.1,504.26v239.54c-36.87,39.26-82.11,78.48-132.88,113.33H97.84c-49.87-115.6,5.3-259.3,22.45-303.95,46.32-120.05,132.92-219.48,230.82-296.08h453.72c-41.7,77.15-82.84,161.19-38.66,215.08,51.96,63.3,179.75,33.27,270.93,32.08ZM982.7,778.65v-56.37c0-6.33-1.15-12.06-3.38-17.32-2.22-5.22-5.39-9.71-9.45-13.47s-8.85-6.67-14.33-8.77-11.55-3.12-18.13-3.12h-14.8c-6.5,0-12.53,1.03-18.05,3.12-5.56,2.1-10.35,5-14.41,8.77-4.06,3.76-7.23,8.25-9.45,13.47-2.22,5.26-3.38,10.99-3.38,17.32v56.37h26.86v-58.81c0-5.82,1.75-10.44,5.3-13.9,3.59-3.42,8.08-5.17,13.6-5.17h13.86c5.52,0,10.01,1.75,13.6,5.17,3.55,3.46,5.3,8.08,5.3,13.9v58.81h26.86ZM868.55,735.97v-17.66h-26.86v20.14c0,5.77-1.75,10.39-5.3,13.86-3.55,3.46-8.08,5.17-13.56,5.17h-13.9c-5.52,0-10.01-1.71-13.56-5.17-3.59-3.46-5.35-8.08-5.35-13.86v-58.85h-26.82v56.37c0,6.33,1.11,12.1,3.34,17.32,2.22,5.22,5.39,9.71,9.45,13.47,4.06,3.76,8.85,6.71,14.33,8.77,5.47,2.1,11.55,3.12,18.13,3.12h14.8c6.5,0,12.53-1.03,18.09-3.12,5.52-2.05,10.31-5,14.37-8.77,4.06-3.76,7.23-8.25,9.45-13.47,2.27-5.22,3.38-10.99,3.38-17.32ZM749.53,748.33v-33.4c0-19.12-15.18-35.16-34.3-35.33-12.02-.13-22.62,5.86-28.91,15.01-6.33-9.15-16.94-15.14-28.91-15.01l-20.36.04v21.13l-11.97,2.91c-2.82-13.73-15.01-24.08-29.6-24.08h-51.06c-16.68,0-30.19,13.51-30.19,30.15v1.41h26.52l.6,7.31c-15.23,1.54-27.11,14.37-27.11,30.02,0,8.34,3.38,15.87,8.85,21.3,5.43,5.47,13,8.85,21.34,8.85h51.06c16.68,0,30.19-13.51,30.19-30.15v-.17h11.38c0,4.58.77,8.72,2.35,12.4,1.58,3.72,3.76,6.93,6.63,9.62,2.87,2.69,6.2,4.75,10.05,6.2,3.85,1.41,8.13,2.1,12.79,2.1h48.8c4.66,0,8.94-.68,12.79-2.1,3.85-1.45,7.23-3.51,10.05-6.2,2.87-2.69,5.05-5.9,6.63-9.62,1.58-3.68,2.39-7.83,2.39-12.4ZM504.77,778.65v-27.88c0-6.29-1.11-12.06-3.34-17.32-2.27-5.22-5.39-9.71-9.45-13.47s-8.85-6.67-14.33-8.77c-5.52-2.1-11.55-3.12-18.13-3.12h-14.84c-6.5,0-12.49,1.03-18.05,3.12-.13.04-.26.13-.38.17v-31.78h-26.82v99.05h26.82v-30.28c0-5.77,1.8-10.39,5.35-13.86s8.08-5.17,13.56-5.17h13.9c5.47,0,10.01,1.71,13.56,5.17s5.35,8.08,5.35,13.86v30.28h26.82ZM382.16,778.65v-69.45c0-16.34-13.26-29.6-29.6-29.6h-10.14c-10.86,0-20.4,5.86-25.53,14.63-5.13-8.77-14.63-14.63-25.53-14.63h-10.14c-16.34,0-29.55,13.26-29.55,29.6v69.45h26.82v-66.67c0-5.65,4.58-10.18,10.18-10.18h6.97c5.6,0,10.18,4.53,10.18,10.18v41.1h22.15v-41.1c0-5.65,4.58-10.18,10.22-10.18h6.93c5.65,0,10.22,4.53,10.22,10.18v66.67h26.82ZM236.66,749.06v-.51c0-7.44-2.69-14.33-7.23-19.59,4.53-5.26,7.23-12.1,7.23-19.59,0-16.42-13.3-29.77-29.77-29.77h-11.12c-10.35,0-19.46,5.22-24.93,13.17-5.43-7.95-14.54-13.17-24.89-13.17h-17.49c-16.55,0-29.94,13.39-29.94,29.94,0,8.3,3.34,15.74,8.77,21.17s12.87,8.77,21.17,8.77h21.34v8.34h-25.53v1.24c0,16.34,13.3,29.6,29.64,29.6h53.16c16.34,0,29.6-13.22,29.6-29.6Z"/>
  <path class="cls-2" d="M982.7,722.29v56.37h-26.86v-58.81c0-5.82-1.75-10.44-5.3-13.9-3.59-3.42-8.08-5.17-13.6-5.17h-13.86c-5.52,0-10.01,1.75-13.6,5.17-3.55,3.46-5.3,8.08-5.3,13.9v58.81h-26.86v-56.37c0-6.33,1.15-12.06,3.38-17.32,2.22-5.22,5.39-9.71,9.45-13.47,4.06-3.76,8.85-6.67,14.41-8.77,5.52-2.1,11.55-3.12,18.05-3.12h14.8c6.59,0,12.66,1.03,18.13,3.12s10.26,5,14.33,8.77,7.23,8.25,9.45,13.47c2.22,5.26,3.38,10.99,3.38,17.32Z"/>
  <path class="cls-2" d="M97.84,857.13h806.39c-6.46,4.49-13.04,8.85-19.72,13.17-6.97,4.49-14.03,8.9-21.17,13.17H111.27c-2.61-4.32-5-8.72-7.23-13.17-2.22-4.32-4.28-8.72-6.2-13.17Z"/>
  <path class="cls-2" d="M868.55,718.31v17.66c0,6.33-1.11,12.1-3.38,17.32-2.22,5.22-5.39,9.71-9.45,13.47-4.06,3.76-8.85,6.71-14.37,8.77-5.56,2.1-11.59,3.12-18.09,3.12h-14.8c-6.59,0-12.66-1.03-18.13-3.12-5.47-2.05-10.26-5-14.33-8.77-4.06-3.76-7.23-8.25-9.45-13.47-2.22-5.22-3.34-10.99-3.34-17.32v-56.37h26.82v58.85c0,5.77,1.75,10.39,5.35,13.86,3.55,3.46,8.04,5.17,13.56,5.17h13.9c5.47,0,10.01-1.71,13.56-5.17,3.55-3.46,5.3-8.08,5.3-13.86v-20.14h26.86Z"/>
  <path class="cls-1" d="M111.27,883.48h752.07c-20.02,12.02-40.76,23.27-61.84,33.53-203.19,98.88-542.21,148.83-672.31-8.21-6.8-8.08-12.74-16.59-17.92-25.32Z"/>
  <path class="cls-1" d="M854.61,88.08c25.58,26-1.92,80.7-35.5,142.67h-432.72c194.89-138.74,420.66-190.96,468.22-142.67Z"/>
  <path class="cls-2" d="M386.39,230.76h432.72c-2.35,4.36-4.75,8.77-7.14,13.17-2.35,4.36-4.75,8.77-7.14,13.17h-453.72c5.69-4.49,11.46-8.85,17.24-13.17,5.99-4.49,12.02-8.85,18.05-13.17Z"/>
  <path class="cls-2" d="M749.53,714.93v33.4c0,4.58-.81,8.72-2.39,12.4-1.58,3.72-3.76,6.93-6.63,9.62-2.82,2.69-6.2,4.75-10.05,6.2-3.85,1.41-8.13,2.1-12.79,2.1h-48.8c-4.66,0-8.94-.68-12.79-2.1-3.85-1.45-7.18-3.51-10.05-6.2-2.87-2.69-5.05-5.9-6.63-9.62-1.58-3.68-2.35-7.83-2.35-12.4v-8.85h26.82v8.85c0,5.05,4.11,9.15,9.2,9.15h40.42c5.09,0,9.2-4.11,9.2-9.2v-38.32c0-5.09-4.11-9.2-9.2-9.2h-3.42c-7.01,0-12.66,5.69-12.66,12.66v6.93h-22.15v-6.93c0-3.51-1.41-6.67-3.72-8.94-2.27-2.31-5.43-3.72-8.94-3.72h-25.53v-21.13l20.36-.04c11.97-.13,22.58,5.86,28.91,15.01,6.29-9.15,16.89-15.14,28.91-15.01,19.12.17,34.3,16.21,34.3,35.33Z"/>
  <path class="cls-1" d="M722.67,709.97v38.32c0,5.09-4.11,9.2-9.2,9.2h-40.42c-5.09,0-9.2-4.11-9.2-9.15v-8.85h-26.82v8.85h-11.38v-38.58c0-2.1-.21-4.11-.6-6.07l11.97-2.91h25.53c3.51,0,6.67,1.41,8.94,3.72,2.31,2.27,3.72,5.43,3.72,8.94v6.93h22.15v-6.93c0-6.97,5.65-12.66,12.66-12.66h3.42c5.09,0,9.2,4.11,9.2,9.2Z"/>
  <path class="cls-2" d="M625.68,748.33v.17c0,16.64-13.51,30.15-30.19,30.15h-51.06c-8.34,0-15.91-3.38-21.34-8.85-5.47-5.43-8.85-12.96-8.85-21.3,0-15.65,11.89-28.48,27.11-30.02,1.03-.13,2.05-.17,3.08-.17h54.74v-8.51c0-5-4.02-9.02-8.98-9.02h-40.42c-4.96,0-9.02,4.02-9.02,9.02v1.37h-26.52v-1.41c0-16.64,13.51-30.15,30.19-30.15h51.06c14.58,0,26.77,10.35,29.6,24.08.38,1.97.6,3.98.6,6.07v38.58ZM599.16,748.5c0-4.96-4.02-9.02-8.98-9.02h-40.42c-2.48,0-4.75,1.03-6.37,2.65s-2.65,3.89-2.65,6.37c0,4.96,4.06,8.98,9.02,8.98h40.42c2.48,0,4.7-.98,6.33-2.61s2.65-3.89,2.65-6.37Z"/>
  <path class="cls-1" d="M590.18,739.48c4.96,0,8.98,4.06,8.98,9.02,0,2.48-1.03,4.75-2.65,6.37s-3.85,2.61-6.33,2.61h-40.42c-4.96,0-9.02-4.02-9.02-8.98,0-2.48,1.03-4.75,2.65-6.37s3.89-2.65,6.37-2.65h40.42Z"/>
  <path class="cls-2" d="M504.77,750.77v27.88h-26.82v-30.28c0-5.77-1.8-10.39-5.35-13.86s-8.08-5.17-13.56-5.17h-13.9c-5.47,0-10.01,1.71-13.56,5.17s-5.35,8.08-5.35,13.86v30.28h-26.82v-99.05h26.82v31.78c.13-.04.26-.13.38-.17,5.56-2.1,11.55-3.12,18.05-3.12h14.84c6.59,0,12.62,1.03,18.13,3.12,5.47,2.1,10.26,5,14.33,8.77s7.18,8.25,9.45,13.47c2.22,5.26,3.34,11.03,3.34,17.32Z"/>
  <path class="cls-1" d="M23.76,230.76h362.63c-6.03,4.32-12.06,8.68-18.05,13.17-5.77,4.32-11.55,8.68-17.24,13.17H50.11v600.03h47.73c1.92,4.45,3.98,8.85,6.2,13.17,2.22,4.45,4.62,8.85,7.23,13.17H23.76V230.76Z"/>
  <path class="cls-2" d="M382.16,709.2v69.45h-26.82v-66.67c0-5.65-4.58-10.18-10.22-10.18h-6.93c-5.65,0-10.22,4.53-10.22,10.18v41.1h-22.15v-41.1c0-5.65-4.58-10.18-10.18-10.18h-6.97c-5.6,0-10.18,4.53-10.18,10.18v66.67h-26.82v-69.45c0-16.34,13.22-29.6,29.55-29.6h10.14c10.91,0,20.4,5.86,25.53,14.63,5.13-8.77,14.67-14.63,25.53-14.63h10.14c16.34,0,29.6,13.26,29.6,29.6Z"/>
  <path class="cls-2" d="M236.66,748.55v.51c0,16.38-13.26,29.6-29.6,29.6h-53.16c-16.34,0-29.64-13.26-29.64-29.6v-1.24h25.53c0,5.35,4.32,9.67,9.62,9.67h42.77c2.48,0,4.7-.98,6.33-2.61s2.65-3.89,2.65-6.37c0-4.96-4.02-9.02-8.98-9.02h-6.54v-21.17h6.5c2.44,0,4.62-.98,6.2-2.57,1.58-1.58,2.57-3.81,2.57-6.2,0-4.83-3.93-8.77-8.77-8.77h-9.15c-2.44,0-4.58.98-6.16,2.57s-2.57,3.81-2.57,6.2c0,2.05-.21,4.11-.6,6.03-2.82,13.64-14.88,23.91-29.38,23.91h-25.83c-8.3,0-15.74-3.34-21.17-8.77s-8.77-12.87-8.77-21.17c0-16.55,13.39-29.94,29.94-29.94h17.49c10.35,0,19.46,5.22,24.89,13.17,5.47-7.95,14.58-13.17,24.93-13.17h11.12c16.47,0,29.77,13.34,29.77,29.77,0,7.48-2.69,14.33-7.23,19.59,4.53,5.26,7.23,12.15,7.23,19.59ZM158.48,709.54c0-4.83-3.93-8.77-8.77-8.77h-16.64c-4.83,0-8.72,3.93-8.72,8.77s3.89,8.77,8.72,8.77h16.64c2.44,0,4.62-.98,6.2-2.57,1.58-1.58,2.57-3.81,2.57-6.2Z"/>
  <path class="cls-1" d="M202.19,739.48c4.96,0,8.98,4.06,8.98,9.02,0,2.48-1.03,4.75-2.65,6.37s-3.85,2.61-6.33,2.61h-42.77c-5.3,0-9.62-4.32-9.62-9.67v-8.34h4.49c14.5,0,26.56-10.26,29.38-23.91l11.97,2.74v21.17h6.54Z"/>
  <path class="cls-1" d="M202.15,700.77c4.83,0,8.77,3.93,8.77,8.77,0,2.39-.98,4.62-2.57,6.2-1.58,1.58-3.76,2.57-6.2,2.57h-6.5l-11.97-2.74c.38-1.92.6-3.98.6-6.03,0-2.39.98-4.62,2.57-6.2s3.72-2.57,6.16-2.57h9.15Z"/>
  <path class="cls-1" d="M149.71,700.77c4.83,0,8.77,3.93,8.77,8.77,0,2.39-.98,4.62-2.57,6.2-1.58,1.58-3.76,2.57-6.2,2.57h-16.64c-4.83,0-8.72-3.93-8.72-8.77s3.89-8.77,8.72-8.77h16.64Z"/>
</svg>