<?xml version="1.0" encoding="UTF-8"?>
<svg id="Layer_1" data-name="Layer 1" xmlns="http://www.w3.org/2000/svg" viewBox="0 0 559.22 435.96">
  <defs>
    <style>
      .cls-1 {
        fill: #fff;
      }
    </style>
  </defs>
  <polygon class="cls-1" points="39.5 250.3 56.9 250.3 56.9 224.74 91.84 224.74 91.84 210.91 56.9 210.91 56.9 200.82 103.09 200.82 103.09 185.66 39.5 185.66 39.5 250.3"/>
  <path class="cls-1" d="M172.79,194.61c-3.02-2.85-6.61-5.05-10.79-6.61-4.18-1.56-8.72-2.34-13.62-2.34h-9.35c-4.97,0-9.55.78-13.72,2.34-4.18,1.56-7.77,3.76-10.79,6.61-3.02,2.85-5.39,6.25-7.11,10.19-1.73,3.94-2.59,8.34-2.59,13.18s.86,9.25,2.59,13.23c1.72,3.98,4.09,7.37,7.11,10.19,3.02,2.82,6.61,5.01,10.79,6.56,4.18,1.56,8.75,2.34,13.72,2.34h9.35c4.91,0,9.45-.78,13.62-2.34,4.18-1.56,7.77-3.75,10.79-6.56,3.02-2.82,5.38-6.21,7.11-10.19,1.72-3.98,2.59-8.39,2.59-13.23s-.86-9.23-2.59-13.18c-1.73-3.94-4.09-7.34-7.11-10.19ZM122.13,217.98h0c0-9.48,7.68-17.16,17.16-17.16h8.73c9.48,0,17.16,7.68,17.16,17.16h0c0,9.48-7.68,17.16-17.16,17.16h-8.73c-9.48,0-17.16-7.68-17.16-17.16Z"/>
  <path class="cls-1" d="M257.2,222.85c2.39-3.71,3.58-8.06,3.58-13.03,0-3.58-.63-6.86-1.89-9.85-1.26-2.98-3.03-5.53-5.32-7.66-2.29-2.12-4.99-3.76-8.1-4.92-3.12-1.16-6.53-1.74-10.24-1.74h-44.55v64.64h17.3v-16.41h20.29l12.93,16.41h22.67l-16.31-18.99c4.04-1.92,7.26-4.74,9.65-8.45ZM234.42,218.74h-26.44s0-17.92,0-17.92h26.44c4.95,0,8.96,4.01,8.96,8.96h0c0,4.95-4.01,8.96-8.96,8.96Z"/>
  <polygon class="cls-1" points="364.19 250.3 346.89 250.3 337.34 205.48 324.15 250.3 306.46 250.3 293.29 205.48 283.75 250.3 266.55 250.3 281.35 185.66 301.73 185.66 315.37 230.48 328.89 185.66 349.27 185.66 364.19 250.3"/>
  <path class="cls-1" d="M441.06,185.66v36.79c0,4.11-.73,7.88-2.19,11.29-1.46,3.41-3.51,6.34-6.16,8.79-2.65,2.46-5.78,4.36-9.39,5.72-3.61,1.36-7.54,2.04-11.78,2.04h-14.33c-4.31,0-8.25-.68-11.83-2.04-3.58-1.36-6.7-3.26-9.35-5.72-2.66-2.45-4.71-5.39-6.16-8.79-1.46-3.41-2.19-7.18-2.19-11.29v-36.79h17.5v37.5c0,6.62,5.36,11.98,11.98,11.98h15.08c6.25,0,11.32-5.07,11.32-11.32v-38.17h17.5Z"/>
  <path class="cls-1" d="M519.72,230.61h0c0,10.88-8.82,19.69-19.69,19.69h-50.22v-15.16h47.4c2.87,0,5.2-2.33,5.2-5.2h0c0-2.87-2.33-5.2-5.2-5.2h-28.65c-10.79,0-19.54-8.75-19.54-19.54h0c0-10.79,8.75-19.54,19.54-19.54h50.27v15.15h-47.45c-2.79,0-5.05,2.26-5.05,5.05h0c0,2.79,2.26,5.05,5.05,5.05h28.66c10.88,0,19.69,8.82,19.69,19.69Z"/>
</svg>